<?xml version="1.0" encoding="UTF-8"?>
<svg width="885px" height="278px" viewBox="0 0 885 278" version="1.1" xmlns="http://www.w3.org/2000/svg" xmlns:xlink="http://www.w3.org/1999/xlink">
    <!-- Generator: Sketch 51 (57462) - http://www.bohemiancoding.com/sketch -->
    <title>Logo</title>
    <desc>Created with Sketch.</desc>
    <defs></defs>
    <g id="Logo" stroke="none" stroke-width="1" fill="none" fill-rule="evenodd">
        <rect fill="#FFFFFF" x="0" y="0" width="885" height="278"></rect>
        <path d="M87.7298434,182 L60.5423434,182 L33.2962496,97.4492188 L57.9642184,97.4492188 L74.1946871,159.675781 L75.3079684,159.675781 L91.0696871,97.4492188 L114.272812,97.4492188 L87.7298434,182 Z M145.302656,168.523438 C151.865156,168.523438 156.962812,164.1875 156.962812,158.5625 L156.962812,154.285156 L146.005781,154.988281 C139.853437,155.457031 136.630781,157.859375 136.630781,161.785156 C136.630781,165.945312 140.087812,168.523438 145.302656,168.523438 Z M137.744062,182.996094 C125.205,182.996094 116.650312,175.203125 116.650312,163.25 C116.650312,151.355469 125.908125,144.441406 142.724531,143.445312 L156.962812,142.625 L156.962812,137.527344 C156.962812,133.132812 153.681562,130.496094 147.939375,130.496094 C142.490156,130.496094 138.974531,132.3125 137.626875,135.769531 L118.994062,135.769531 C119.931562,123.113281 131.474531,115.261719 149.11125,115.261719 C167.099531,115.261719 177.353437,123.464844 177.353437,137.527344 L177.353437,182 L157.197187,182 L157.197187,173.914062 L156.083906,173.914062 C153.154218,179.480469 146.005781,182.996094 137.744062,182.996094 Z M195.141093,182 L195.141093,92.3515625 L215.824687,92.3515625 L215.824687,182 L195.141093,182 Z M263.377969,129.96875 C256.581094,129.96875 251.835,134.714844 251.307656,142.097656 L274.979531,142.097656 C274.627969,134.480469 270.292031,129.96875 263.377969,129.96875 Z M275.74125,162.78125 L294.667031,162.78125 C292.381875,175.496094 280.42875,183.523438 263.55375,183.523438 C242.752969,183.523438 230.799844,171.21875 230.799844,149.832031 C230.799844,128.328125 243.045937,115.261719 263.260781,115.261719 C283.358437,115.261719 295.077187,127.449219 295.077187,148.25 L295.077187,153.992188 L251.190469,153.992188 L251.190469,155.046875 C251.36625,163.542969 256.229531,168.816406 264.139687,168.816406 C270.174844,168.816406 274.335,166.589844 275.74125,162.78125 Z M309.407812,182 L309.407812,116.785156 L329.564062,116.785156 L329.564062,127.507812 L330.677344,127.507812 C332.259375,120.945312 338.5875,115.789062 346.732031,115.789062 C349.485937,115.789062 352.708594,116.140625 354.232031,116.785156 L354.232031,134.421875 C352.65,133.777344 348.489844,133.25 345.325781,133.25 C336.185156,133.25 330.091406,138.40625 330.091406,147.488281 L330.091406,182 L309.407812,182 Z M366.511875,182 L366.511875,116.785156 L387.254062,116.785156 L387.254062,182 L366.511875,182 Z M376.882969,109.226562 C369.617344,109.226562 365.222812,105.535156 365.222812,100.027344 C365.222812,94.4609375 369.617344,90.7695312 376.882969,90.7695312 C384.207187,90.7695312 388.601719,94.4609375 388.601719,100.027344 C388.601719,105.535156 384.207187,109.226562 376.882969,109.226562 Z M430.237031,168.523438 C436.799531,168.523438 441.897187,164.1875 441.897187,158.5625 L441.897187,154.285156 L430.940156,154.988281 C424.787812,155.457031 421.565156,157.859375 421.565156,161.785156 C421.565156,165.945312 425.022187,168.523438 430.237031,168.523438 Z M422.678437,182.996094 C410.139375,182.996094 401.584687,175.203125 401.584687,163.25 C401.584687,151.355469 410.8425,144.441406 427.658906,143.445312 L441.897187,142.625 L441.897187,137.527344 C441.897187,133.132812 438.615937,130.496094 432.87375,130.496094 C427.424531,130.496094 423.908906,132.3125 422.56125,135.769531 L403.928437,135.769531 C404.865937,123.113281 416.408906,115.261719 434.045625,115.261719 C452.033906,115.261719 462.287812,123.464844 462.287812,137.527344 L462.287812,182 L442.131562,182 L442.131562,173.914062 L441.018281,173.914062 C438.088594,179.480469 430.940156,182.996094 422.678437,182.996094 Z M509.874844,182 L509.874844,168.347656 L549.542813,115.847656 L549.542813,114.734375 L510.519375,114.734375 L510.519375,97.4492188 L575.324063,97.4492188 L575.324063,111.101562 L535.656094,163.601562 L535.656094,164.714844 L576.554531,164.714844 L576.554531,182 L509.874844,182 Z M619.06875,168.523438 C625.63125,168.523438 630.728906,164.1875 630.728906,158.5625 L630.728906,154.285156 L619.771875,154.988281 C613.619531,155.457031 610.396875,157.859375 610.396875,161.785156 C610.396875,165.945312 613.853906,168.523438 619.06875,168.523438 Z M611.510156,182.996094 C598.971094,182.996094 590.416406,175.203125 590.416406,163.25 C590.416406,151.355469 599.674219,144.441406 616.490625,143.445312 L630.728906,142.625 L630.728906,137.527344 C630.728906,133.132812 627.447656,130.496094 621.705469,130.496094 C616.25625,130.496094 612.740625,132.3125 611.392969,135.769531 L592.760156,135.769531 C593.697656,123.113281 605.240625,115.261719 622.877344,115.261719 C640.865625,115.261719 651.119531,123.464844 651.119531,137.527344 L651.119531,182 L630.963281,182 L630.963281,173.914062 L629.85,173.914062 C626.920313,179.480469 619.771875,182.996094 611.510156,182.996094 Z M668.32125,182 L668.32125,116.785156 L689.063438,116.785156 L689.063438,182 L668.32125,182 Z M678.692344,109.226562 C671.426719,109.226562 667.032188,105.535156 667.032188,100.027344 C667.032188,94.4609375 671.426719,90.7695312 678.692344,90.7695312 C686.016563,90.7695312 690.411094,94.4609375 690.411094,100.027344 C690.411094,105.535156 686.016563,109.226562 678.692344,109.226562 Z M729.702657,182.996094 C713.355,182.996094 703.51125,170.222656 703.51125,149.246094 C703.51125,128.445312 713.413594,115.789062 729.702657,115.789062 C738.433125,115.789062 745.464375,120.066406 748.687032,127.273438 L749.800313,127.273438 L749.800313,92.3515625 L770.5425,92.3515625 L770.5425,182 L750.327657,182 L750.327657,171.804688 L749.214375,171.804688 C745.991719,178.835938 738.784688,182.996094 729.702657,182.996094 Z M737.319844,132.078125 C729.468282,132.078125 724.780782,138.640625 724.780782,149.363281 C724.780782,160.203125 729.409688,166.707031 737.319844,166.707031 C745.23,166.707031 749.9175,160.203125 749.9175,149.421875 C749.9175,138.699219 745.171407,132.078125 737.319844,132.078125 Z M818.037188,129.96875 C811.240313,129.96875 806.494219,134.714844 805.966875,142.097656 L829.63875,142.097656 C829.287188,134.480469 824.95125,129.96875 818.037188,129.96875 Z M830.400469,162.78125 L849.32625,162.78125 C847.041094,175.496094 835.087969,183.523438 818.212969,183.523438 C797.412188,183.523438 785.459063,171.21875 785.459063,149.832031 C785.459063,128.328125 797.705157,115.261719 817.92,115.261719 C838.017657,115.261719 849.736407,127.449219 849.736407,148.25 L849.736407,153.992188 L805.849688,153.992188 L805.849688,155.046875 C806.025469,163.542969 810.88875,168.816406 818.798907,168.816406 C824.834063,168.816406 828.994219,166.589844 830.400469,162.78125 Z" id="Valeria-Zaide" fill="#FC1580"></path>
    </g>
</svg>