<?xml version="1.0" encoding="UTF-8"?>
<svg width="800px" height="343px" viewBox="0 0 800 343" version="1.1" xmlns="http://www.w3.org/2000/svg" xmlns:xlink="http://www.w3.org/1999/xlink">
    <!-- Generator: Sketch 51 (57462) - http://www.bohemiancoding.com/sketch -->
    <title>Logo</title>
    <desc>Created with Sketch.</desc>
    <defs></defs>
    <g id="Logo" stroke="none" stroke-width="1" fill="none" fill-rule="evenodd">
        <rect fill="#000000" x="0" y="0" width="800" height="343"></rect>
        <path d="M85.6422857,113.857143 L69.0548571,113.857143 L47.4068571,46.9451429 L62.4948571,46.9451429 L77.3954286,93.9897143 L77.5828571,93.9897143 L92.6708571,46.9451429 L107.852571,46.9451429 L85.6422857,113.857143 Z M106.446857,80.3074286 C106.634287,77.1836034 107.415231,74.5908675 108.789714,72.5291429 C110.164197,70.4674183 111.913513,68.8118158 114.037714,67.5622857 C116.161915,66.3127557 118.551606,65.4224788 121.206857,64.8914286 C123.862109,64.3603783 126.532939,64.0948571 129.219429,64.0948571 C131.656012,64.0948571 134.123797,64.2666649 136.622857,64.6102857 C139.121917,64.9539065 141.402275,65.6255188 143.464,66.6251429 C145.525725,67.6247669 147.212565,69.0148482 148.524571,70.7954286 C149.836578,72.5760089 150.492571,74.9344615 150.492571,77.8708571 L150.492571,103.08 C150.492571,105.266678 150.617523,107.359609 150.867429,109.358857 C151.117335,111.358105 151.554664,112.857519 152.179429,113.857143 L138.684571,113.857143 C138.434665,113.107425 138.23162,112.342099 138.075429,111.561143 C137.919237,110.780187 137.809905,109.983623 137.747429,109.171429 C135.623227,111.358106 133.124205,112.888758 130.250286,113.763429 C127.376367,114.6381 124.440015,115.075429 121.441143,115.075429 C119.129512,115.075429 116.974105,114.794289 114.974857,114.232 C112.975609,113.669711 111.226293,112.795054 109.726857,111.608 C108.227421,110.420946 107.056004,108.921533 106.212571,107.109714 C105.369139,105.297896 104.947429,103.142489 104.947429,100.643429 C104.947429,97.8944624 105.431614,95.6297232 106.4,93.8491429 C107.368386,92.0685625 108.617897,90.6472434 110.148571,89.5851429 C111.679246,88.5230423 113.428562,87.7264788 115.396571,87.1954286 C117.364581,86.6643783 119.34818,86.2426682 121.347429,85.9302857 C123.346677,85.6179032 125.314657,85.3680009 127.251429,85.1805714 C129.1882,84.9931419 130.906278,84.7120019 132.405714,84.3371429 C133.90515,83.9622838 135.092186,83.4156226 135.966857,82.6971429 C136.841528,81.9786631 137.247619,80.9321973 137.185143,79.5577143 C137.185143,78.1207547 136.950859,76.9805756 136.482286,76.1371429 C136.013712,75.2937101 135.388956,74.6377166 134.608,74.1691429 C133.827044,73.7005691 132.921148,73.3881913 131.890286,73.232 C130.859423,73.0758087 129.750482,72.9977143 128.563429,72.9977143 C125.939415,72.9977143 123.877722,73.5599944 122.378286,74.6845714 C120.87885,75.8091485 120.004192,77.6834155 119.754286,80.3074286 L106.446857,80.3074286 Z M137.185143,90.1474286 C136.622854,90.6472406 135.920004,91.0377129 135.076571,91.3188571 C134.233139,91.6000014 133.327243,91.8342848 132.358857,92.0217143 C131.390471,92.2091438 130.375243,92.3653327 129.313143,92.4902857 C128.251042,92.6152387 127.188958,92.7714276 126.126857,92.9588571 C125.127233,93.1462867 124.143243,93.3961889 123.174857,93.7085714 C122.206471,94.0209539 121.363051,94.442664 120.644571,94.9737143 C119.926092,95.5047646 119.348193,96.1763769 118.910857,96.9885714 C118.473522,97.800766 118.254857,98.8316128 118.254857,100.081143 C118.254857,101.268196 118.473522,102.267805 118.910857,103.08 C119.348193,103.892195 119.941711,104.532569 120.691429,105.001143 C121.441147,105.469717 122.315805,105.797713 123.315429,105.985143 C124.315053,106.172572 125.345899,106.266286 126.408,106.266286 C129.032013,106.266286 131.062469,105.828957 132.499429,104.954286 C133.936388,104.079615 134.998473,103.033149 135.685714,101.814857 C136.372956,100.596565 136.794666,99.3626729 136.950857,98.1131429 C137.107048,96.8636128 137.185143,95.8640037 137.185143,95.1142857 L137.185143,90.1474286 Z M161.176,46.9451429 L174.483429,46.9451429 L174.483429,113.857143 L161.176,113.857143 L161.176,46.9451429 Z M217.592,84.4308571 C216.967235,81.057126 215.858294,78.4956278 214.265143,76.7462857 C212.671992,74.9969436 210.251064,74.1222857 207.002286,74.1222857 C204.878085,74.1222857 203.11315,74.4815202 201.707429,75.2 C200.301707,75.9184798 199.177147,76.8087566 198.333714,77.8708571 C197.490281,78.9329577 196.896764,80.0575179 196.553143,81.2445714 C196.209522,82.431625 196.006477,83.4937096 195.944,84.4308571 L217.592,84.4308571 Z M195.944,92.8651429 C196.13143,97.1760216 197.224752,100.2998 199.224,102.236571 C201.223248,104.173343 204.097124,105.141714 207.845714,105.141714 C210.532204,105.141714 212.8438,104.470102 214.780571,103.126857 C216.717343,101.783612 217.904379,100.362293 218.341714,98.8628571 L230.056,98.8628571 C228.181705,104.673172 225.307829,108.827797 221.434286,111.326857 C217.560743,113.825917 212.875075,115.075429 207.377143,115.075429 C203.566076,115.075429 200.12992,114.466292 197.068571,113.248 C194.007223,112.029708 191.414487,110.296011 189.290286,108.046857 C187.166085,105.797703 185.526101,103.111254 184.370286,99.9874286 C183.21447,96.8636034 182.636571,93.4274473 182.636571,89.6788571 C182.636571,86.05522 183.230089,82.6815394 184.417143,79.5577143 C185.604196,76.4338891 187.291037,73.7318209 189.477714,71.4514286 C191.664392,69.1710362 194.272747,67.3748637 197.302857,66.0628571 C200.332968,64.7508506 203.691029,64.0948571 207.377143,64.0948571 C211.500592,64.0948571 215.092937,64.8914206 218.154286,66.4845714 C221.215634,68.0777223 223.730276,70.2175104 225.698286,72.904 C227.666296,75.5904896 229.087615,78.6517923 229.962286,82.088 C230.836957,85.5242077 231.149335,89.1165527 230.899429,92.8651429 L195.944,92.8651429 Z M238.771429,65.4068571 L251.422857,65.4068571 L251.422857,74.4034286 L251.610286,74.4034286 C252.235051,72.9039925 253.078471,71.5139112 254.140571,70.2331429 C255.202672,68.9523745 256.420946,67.8590521 257.795429,66.9531429 C259.169912,66.0472336 260.638087,65.3443835 262.2,64.8445714 C263.761913,64.3447594 265.386277,64.0948571 267.073143,64.0948571 C267.947814,64.0948571 268.916185,64.2510461 269.978286,64.5634286 L269.978286,76.9337143 C269.353521,76.8087613 268.603814,76.699429 267.729143,76.6057143 C266.854472,76.5119995 266.011052,76.4651429 265.198857,76.4651429 C262.762274,76.4651429 260.70058,76.871234 259.013714,77.6834286 C257.326849,78.4956231 255.968005,79.6045644 254.937143,81.0102857 C253.906281,82.416007 253.172193,84.0559906 252.734857,85.9302857 C252.297522,87.8045808 252.078857,89.8350367 252.078857,92.0217143 L252.078857,113.857143 L238.771429,113.857143 L238.771429,65.4068571 Z M288.908571,57.9097143 L275.601143,57.9097143 L275.601143,46.9451429 L288.908571,46.9451429 L288.908571,57.9097143 Z M275.601143,65.4068571 L288.908571,65.4068571 L288.908571,113.857143 L275.601143,113.857143 L275.601143,65.4068571 Z M298.842286,80.3074286 C299.029715,77.1836034 299.81066,74.5908675 301.185143,72.5291429 C302.559626,70.4674183 304.308942,68.8118158 306.433143,67.5622857 C308.557344,66.3127557 310.947034,65.4224788 313.602286,64.8914286 C316.257537,64.3603783 318.928368,64.0948571 321.614857,64.0948571 C324.051441,64.0948571 326.519226,64.2666649 329.018286,64.6102857 C331.517346,64.9539065 333.797704,65.6255188 335.859429,66.6251429 C337.921153,67.6247669 339.607993,69.0148482 340.92,70.7954286 C342.232007,72.5760089 342.888,74.9344615 342.888,77.8708571 L342.888,103.08 C342.888,105.266678 343.012951,107.359609 343.262857,109.358857 C343.512763,111.358105 343.950092,112.857519 344.574857,113.857143 L331.08,113.857143 C330.830094,113.107425 330.627048,112.342099 330.470857,111.561143 C330.314666,110.780187 330.205334,109.983623 330.142857,109.171429 C328.018656,111.358106 325.519633,112.888758 322.645714,113.763429 C319.771795,114.6381 316.835444,115.075429 313.836571,115.075429 C311.524941,115.075429 309.369534,114.794289 307.370286,114.232 C305.371038,113.669711 303.621722,112.795054 302.122286,111.608 C300.62285,110.420946 299.451433,108.921533 298.608,107.109714 C297.764567,105.297896 297.342857,103.142489 297.342857,100.643429 C297.342857,97.8944624 297.827043,95.6297232 298.795429,93.8491429 C299.763814,92.0685625 301.013326,90.6472434 302.544,89.5851429 C304.074674,88.5230423 305.82399,87.7264788 307.792,87.1954286 C309.76001,86.6643783 311.743609,86.2426682 313.742857,85.9302857 C315.742105,85.6179032 317.710086,85.3680009 319.646857,85.1805714 C321.583629,84.9931419 323.301707,84.7120019 324.801143,84.3371429 C326.300579,83.9622838 327.487615,83.4156226 328.362286,82.6971429 C329.236957,81.9786631 329.643048,80.9321973 329.580571,79.5577143 C329.580571,78.1207547 329.346288,76.9805756 328.877714,76.1371429 C328.409141,75.2937101 327.784385,74.6377166 327.003429,74.1691429 C326.222472,73.7005691 325.316577,73.3881913 324.285714,73.232 C323.254852,73.0758087 322.145911,72.9977143 320.958857,72.9977143 C318.334844,72.9977143 316.27315,73.5599944 314.773714,74.6845714 C313.274278,75.8091485 312.39962,77.6834155 312.149714,80.3074286 L298.842286,80.3074286 Z M329.580571,90.1474286 C329.018283,90.6472406 328.315433,91.0377129 327.472,91.3188571 C326.628567,91.6000014 325.722672,91.8342848 324.754286,92.0217143 C323.7859,92.2091438 322.770672,92.3653327 321.708571,92.4902857 C320.646471,92.6152387 319.584386,92.7714276 318.522286,92.9588571 C317.522662,93.1462867 316.538672,93.3961889 315.570286,93.7085714 C314.6019,94.0209539 313.75848,94.442664 313.04,94.9737143 C312.32152,95.5047646 311.743621,96.1763769 311.306286,96.9885714 C310.86895,97.800766 310.650286,98.8316128 310.650286,100.081143 C310.650286,101.268196 310.86895,102.267805 311.306286,103.08 C311.743621,103.892195 312.337139,104.532569 313.086857,105.001143 C313.836575,105.469717 314.711233,105.797713 315.710857,105.985143 C316.710481,106.172572 317.741328,106.266286 318.803429,106.266286 C321.427442,106.266286 323.457898,105.828957 324.894857,104.954286 C326.331817,104.079615 327.393901,103.033149 328.081143,101.814857 C328.768384,100.596565 329.190094,99.3626729 329.346286,98.1131429 C329.502477,96.8636128 329.580571,95.8640037 329.580571,95.1142857 L329.580571,90.1474286 Z M376.344,102.236571 L412.236571,59.3154286 L379.155429,59.3154286 L379.155429,46.9451429 L431.822857,46.9451429 L431.822857,58.5657143 L395.930286,101.486857 L432.76,101.486857 L432.76,113.857143 L376.344,113.857143 L376.344,102.236571 Z M439.413714,80.3074286 C439.601144,77.1836034 440.382088,74.5908675 441.756571,72.5291429 C443.131054,70.4674183 444.88037,68.8118158 447.004571,67.5622857 C449.128773,66.3127557 451.518463,65.4224788 454.173714,64.8914286 C456.828966,64.3603783 459.499796,64.0948571 462.186286,64.0948571 C464.622869,64.0948571 467.090654,64.2666649 469.589714,64.6102857 C472.088774,64.9539065 474.369133,65.6255188 476.430857,66.6251429 C478.492582,67.6247669 480.179422,69.0148482 481.491429,70.7954286 C482.803435,72.5760089 483.459429,74.9344615 483.459429,77.8708571 L483.459429,103.08 C483.459429,105.266678 483.58438,107.359609 483.834286,109.358857 C484.084192,111.358105 484.521521,112.857519 485.146286,113.857143 L471.651429,113.857143 C471.401523,113.107425 471.198477,112.342099 471.042286,111.561143 C470.886094,110.780187 470.776762,109.983623 470.714286,109.171429 C468.590085,111.358106 466.091062,112.888758 463.217143,113.763429 C460.343224,114.6381 457.406872,115.075429 454.408,115.075429 C452.096369,115.075429 449.940962,114.794289 447.941714,114.232 C445.942466,113.669711 444.19315,112.795054 442.693714,111.608 C441.194278,110.420946 440.022861,108.921533 439.179429,107.109714 C438.335996,105.297896 437.914286,103.142489 437.914286,100.643429 C437.914286,97.8944624 438.398471,95.6297232 439.366857,93.8491429 C440.335243,92.0685625 441.584754,90.6472434 443.115429,89.5851429 C444.646103,88.5230423 446.395419,87.7264788 448.363429,87.1954286 C450.331438,86.6643783 452.315038,86.2426682 454.314286,85.9302857 C456.313534,85.6179032 458.281514,85.3680009 460.218286,85.1805714 C462.155057,84.9931419 463.873135,84.7120019 465.372571,84.3371429 C466.872007,83.9622838 468.059043,83.4156226 468.933714,82.6971429 C469.808385,81.9786631 470.214477,80.9321973 470.152,79.5577143 C470.152,78.1207547 469.917717,76.9805756 469.449143,76.1371429 C468.980569,75.2937101 468.355813,74.6377166 467.574857,74.1691429 C466.793901,73.7005691 465.888005,73.3881913 464.857143,73.232 C463.826281,73.0758087 462.717339,72.9977143 461.530286,72.9977143 C458.906273,72.9977143 456.844579,73.5599944 455.345143,74.6845714 C453.845707,75.8091485 452.971049,77.6834155 452.721143,80.3074286 L439.413714,80.3074286 Z M470.152,90.1474286 C469.589711,90.6472406 468.886861,91.0377129 468.043429,91.3188571 C467.199996,91.6000014 466.2941,91.8342848 465.325714,92.0217143 C464.357328,92.2091438 463.342101,92.3653327 462.28,92.4902857 C461.217899,92.6152387 460.155815,92.7714276 459.093714,92.9588571 C458.09409,93.1462867 457.1101,93.3961889 456.141714,93.7085714 C455.173328,94.0209539 454.329908,94.442664 453.611429,94.9737143 C452.892949,95.5047646 452.31505,96.1763769 451.877714,96.9885714 C451.440379,97.800766 451.221714,98.8316128 451.221714,100.081143 C451.221714,101.268196 451.440379,102.267805 451.877714,103.08 C452.31505,103.892195 452.908568,104.532569 453.658286,105.001143 C454.408004,105.469717 455.282662,105.797713 456.282286,105.985143 C457.28191,106.172572 458.312757,106.266286 459.374857,106.266286 C461.99887,106.266286 464.029326,105.828957 465.466286,104.954286 C466.903245,104.079615 467.96533,103.033149 468.652571,101.814857 C469.339813,100.596565 469.761523,99.3626729 469.917714,98.1131429 C470.073906,96.8636128 470.152,95.8640037 470.152,95.1142857 L470.152,90.1474286 Z M507.450286,57.9097143 L494.142857,57.9097143 L494.142857,46.9451429 L507.450286,46.9451429 L507.450286,57.9097143 Z M494.142857,65.4068571 L507.450286,65.4068571 L507.450286,113.857143 L494.142857,113.857143 L494.142857,65.4068571 Z M552.339429,89.4914286 C552.339429,87.4921805 552.152002,85.5710568 551.777143,83.728 C551.402284,81.8849432 550.761909,80.2605785 549.856,78.8548571 C548.950091,77.4491358 547.778674,76.3089568 546.341714,75.4342857 C544.904755,74.5596147 543.092963,74.1222857 540.906286,74.1222857 C538.719608,74.1222857 536.876579,74.5596147 535.377143,75.4342857 C533.877707,76.3089568 532.675052,77.4647547 531.769143,78.9017143 C530.863234,80.3386739 530.20724,81.9786575 529.801143,83.8217143 C529.395046,85.6647711 529.192,87.5858948 529.192,89.5851429 C529.192,91.4594379 529.410664,93.3337049 529.848,95.208 C530.285336,97.0822951 530.988186,98.7535165 531.956571,100.221714 C532.924957,101.689912 534.143231,102.876948 535.611429,103.782857 C537.079626,104.688766 538.844561,105.141714 540.906286,105.141714 C543.092963,105.141714 544.920374,104.704385 546.388571,103.829714 C547.856769,102.955043 549.028186,101.783626 549.902857,100.315429 C550.777528,98.8472308 551.402284,97.1760094 551.777143,95.3017143 C552.152002,93.4274192 552.339429,91.4906767 552.339429,89.4914286 Z M552.526857,107.672 L552.339429,107.672 C550.777516,110.296013 548.731441,112.185899 546.201143,113.341714 C543.670844,114.49753 540.812587,115.075429 537.626286,115.075429 C534.002649,115.075429 530.816395,114.372578 528.067429,112.966857 C525.318462,111.561136 523.053723,109.655631 521.273143,107.250286 C519.492563,104.84494 518.149338,102.080397 517.243429,98.9565714 C516.337519,95.8327463 515.884571,92.5840169 515.884571,89.2102857 C515.884571,85.9615076 516.337519,82.8221104 517.243429,79.792 C518.149338,76.7618896 519.492563,74.0910592 521.273143,71.7794286 C523.053723,69.467798 525.287225,67.6091499 527.973714,66.2034286 C530.660204,64.7977073 533.783982,64.0948571 537.345143,64.0948571 C540.219062,64.0948571 542.952368,64.7039939 545.545143,65.9222857 C548.137918,67.1405775 550.183993,68.93675 551.683429,71.3108571 L551.870857,71.3108571 L551.870857,46.9451429 L565.178286,46.9451429 L565.178286,113.857143 L552.526857,113.857143 L552.526857,107.672 Z M607.818286,84.4308571 C607.193521,81.057126 606.084579,78.4956278 604.491429,76.7462857 C602.898278,74.9969436 600.47735,74.1222857 597.228571,74.1222857 C595.10437,74.1222857 593.339436,74.4815202 591.933714,75.2 C590.527993,75.9184798 589.403433,76.8087566 588.56,77.8708571 C587.716567,78.9329577 587.123049,80.0575179 586.779429,81.2445714 C586.435808,82.431625 586.232762,83.4937096 586.170286,84.4308571 L607.818286,84.4308571 Z M586.170286,92.8651429 C586.357715,97.1760216 587.451038,100.2998 589.450286,102.236571 C591.449534,104.173343 594.32341,105.141714 598.072,105.141714 C600.75849,105.141714 603.070086,104.470102 605.006857,103.126857 C606.943629,101.783612 608.130664,100.362293 608.568,98.8628571 L620.282286,98.8628571 C618.407991,104.673172 615.534115,108.827797 611.660571,111.326857 C607.787028,113.825917 603.101361,115.075429 597.603429,115.075429 C593.792362,115.075429 590.356206,114.466292 587.294857,113.248 C584.233509,112.029708 581.640773,110.296011 579.516571,108.046857 C577.39237,105.797703 575.752387,103.111254 574.596571,99.9874286 C573.440756,96.8636034 572.862857,93.4274473 572.862857,89.6788571 C572.862857,86.05522 573.456375,82.6815394 574.643429,79.5577143 C575.830482,76.4338891 577.517322,73.7318209 579.704,71.4514286 C581.890678,69.1710362 584.499032,67.3748637 587.529143,66.0628571 C590.559253,64.7508506 593.917315,64.0948571 597.603429,64.0948571 C601.726878,64.0948571 605.319223,64.8914206 608.380571,66.4845714 C611.44192,68.0777223 613.956562,70.2175104 615.924571,72.904 C617.892581,75.5904896 619.3139,78.6517923 620.188571,82.088 C621.063242,85.5242077 621.37562,89.1165527 621.125714,92.8651429 L586.170286,92.8651429 Z" id="Valeria-Zaide" fill="#FFD4E8"></path>
        <path d="M119.182857,219.342857 C119.182857,231.495299 115.788605,240.525685 109,246.434286 C102.211395,252.342887 92.8248218,255.297143 80.84,255.297143 C68.6875583,255.297143 59.2800333,252.363839 52.6171429,246.497143 C45.9542524,240.630447 42.6228571,231.579109 42.6228571,219.342857 L42.6228571,163.525714 L62.36,163.525714 L62.36,219.342857 C62.36,221.773345 62.5695217,224.161893 62.9885714,226.508571 C63.4076211,228.85525 64.2876123,230.929515 65.6285714,232.731429 C66.9695305,234.533342 68.8342738,235.999994 71.2228571,237.131429 C73.6114405,238.262863 76.8171227,238.828571 80.84,238.828571 C87.8800352,238.828571 92.740939,237.257159 95.4228571,234.114286 C98.1047753,230.971413 99.4457143,226.047653 99.4457143,219.342857 L99.4457143,163.525714 L119.182857,163.525714 L119.182857,219.342857 Z M158.154286,206.268571 L129.24,163.525714 L152.12,163.525714 L169.72,192.188571 L187.948571,163.525714 L209.571429,163.525714 L180.782857,206.394286 L212.085714,253.285714 L188.577143,253.285714 L168.965714,222.234286 L148.977143,253.285714 L126.851429,253.285714 L158.154286,206.268571 Z M274.691429,236.691429 L292.291429,236.691429 C295.140967,236.691429 297.906653,236.230481 300.588571,235.308571 C303.27049,234.386662 305.659037,232.857154 307.754286,230.72 C309.849534,228.582846 311.525708,225.796208 312.782857,222.36 C314.040006,218.923792 314.668571,214.733358 314.668571,209.788571 C314.668571,205.262835 314.228576,201.177161 313.348571,197.531429 C312.468567,193.885696 311.022867,190.763823 309.011429,188.165714 C306.99999,185.567606 304.339064,183.57715 301.028571,182.194286 C297.718079,180.811422 293.632405,180.12 288.771429,180.12 L274.691429,180.12 L274.691429,236.691429 Z M254.954286,163.525714 L293.674286,163.525714 C299.457172,163.525714 304.84188,164.44761 309.828571,166.291429 C314.815263,168.135247 319.13141,170.900934 322.777143,174.588571 C326.422875,178.276209 329.272371,182.885687 331.325714,188.417143 C333.379058,193.948599 334.405714,200.443772 334.405714,207.902857 C334.405714,214.440033 333.567627,220.474258 331.891429,226.005714 C330.21523,231.537171 327.680017,236.314266 324.285714,240.337143 C320.891412,244.36002 316.659073,247.523798 311.588571,249.828571 C306.51807,252.133345 300.546701,253.285714 293.674286,253.285714 L254.954286,253.285714 L254.954286,163.525714 Z M389.971429,213.811429 C389.133329,209.285692 387.645725,205.849536 385.508571,203.502857 C383.371418,201.156179 380.123831,199.982857 375.765714,199.982857 C372.916176,199.982857 370.548581,200.464757 368.662857,201.428571 C366.777133,202.392386 365.268577,203.58666 364.137143,205.011429 C363.005709,206.436198 362.209526,207.944754 361.748571,209.537143 C361.287617,211.129532 361.015239,212.554279 360.931429,213.811429 L389.971429,213.811429 Z M360.931429,225.125714 C361.182858,230.9086 362.64951,235.099035 365.331429,237.697143 C368.013347,240.295251 371.868546,241.594286 376.897143,241.594286 C380.50097,241.594286 383.601892,240.693342 386.2,238.891429 C388.798108,237.089515 390.390473,235.182867 390.977143,233.171429 L406.691429,233.171429 C404.17713,240.965753 400.321931,246.539031 395.125714,249.891429 C389.929498,253.243826 383.643846,254.92 376.268571,254.92 C371.156165,254.92 366.546687,254.102865 362.44,252.468571 C358.333313,250.834278 354.855252,248.508587 352.005714,245.491429 C349.156176,242.474271 346.956198,238.870497 345.405714,234.68 C343.85523,230.489503 343.08,225.880025 343.08,220.851429 C343.08,215.990452 343.876183,211.464783 345.468571,207.274286 C347.06096,203.083789 349.323795,199.459063 352.257143,196.4 C355.190491,193.340937 358.689503,190.931437 362.754286,189.171429 C366.819068,187.41142 371.323785,186.531429 376.268571,186.531429 C381.800028,186.531429 386.619027,187.599989 390.725714,189.737143 C394.832401,191.874296 398.205701,194.744744 400.845714,198.348571 C403.485727,201.952399 405.392375,206.059025 406.565714,210.668571 C407.739053,215.278118 408.158097,220.097118 407.822857,225.125714 L360.931429,225.125714 Z M432.211429,232.165714 C432.211429,234.093343 432.60952,235.748565 433.405714,237.131429 C434.201909,238.514293 435.228565,239.64571 436.485714,240.525714 C437.742863,241.405719 439.188563,242.055236 440.822857,242.474286 C442.457151,242.893335 444.154277,243.102857 445.914286,243.102857 C447.171435,243.102857 448.491422,242.956192 449.874286,242.662857 C451.25715,242.369522 452.51428,241.908575 453.645714,241.28 C454.777149,240.651425 455.719996,239.813339 456.474286,238.765714 C457.228575,237.71809 457.605714,236.398103 457.605714,234.805714 C457.605714,232.123796 455.82478,230.112388 452.262857,228.771429 C448.700935,227.430469 443.73527,226.089531 437.365714,224.748571 C434.767606,224.161902 432.232393,223.47048 429.76,222.674286 C427.287607,221.878091 425.087629,220.830483 423.16,219.531429 C421.232371,218.232374 419.681911,216.598105 418.508571,214.628571 C417.335232,212.659038 416.748571,210.249538 416.748571,207.4 C416.748571,203.209503 417.565706,199.773347 419.2,197.091429 C420.834294,194.40951 422.992368,192.293341 425.674286,190.742857 C428.356204,189.192373 431.373317,188.10286 434.725714,187.474286 C438.078112,186.845711 441.514268,186.531429 445.034286,186.531429 C448.554303,186.531429 451.969507,186.866663 455.28,187.537143 C458.590493,188.207622 461.544749,189.33904 464.142857,190.931429 C466.740965,192.523817 468.899039,194.639987 470.617143,197.28 C472.335247,199.920013 473.361903,203.251408 473.697143,207.274286 L456.725714,207.274286 C456.474284,203.838078 455.17525,201.512387 452.828571,200.297143 C450.481893,199.081899 447.716206,198.474286 444.531429,198.474286 C443.525709,198.474286 442.436196,198.537142 441.262857,198.662857 C440.089518,198.788572 439.020957,199.06095 438.057143,199.48 C437.093329,199.89905 436.276194,200.506663 435.605714,201.302857 C434.935235,202.099052 434.6,203.167612 434.6,204.508571 C434.6,206.10096 435.186661,207.399995 436.36,208.405714 C437.533339,209.411434 439.062848,210.228568 440.948571,210.857143 C442.834295,211.485717 444.992369,212.051426 447.422857,212.554286 C449.853345,213.057145 452.325702,213.601902 454.84,214.188571 C457.438108,214.775241 459.973321,215.487615 462.445714,216.325714 C464.918108,217.163814 467.118086,218.274279 469.045714,219.657143 C470.973343,221.040007 472.523804,222.758085 473.697143,224.811429 C474.870482,226.864772 475.457143,229.399985 475.457143,232.417143 C475.457143,236.69145 474.598104,240.274271 472.88,243.165714 C471.161896,246.057157 468.920014,248.382848 466.154286,250.142857 C463.388558,251.902866 460.22478,253.139044 456.662857,253.851429 C453.100935,254.563813 449.476209,254.92 445.788571,254.92 C442.017124,254.92 438.329542,254.542861 434.725714,253.788571 C431.121887,253.034282 427.916205,251.777152 425.108571,250.017143 C422.300938,248.257134 419.996199,245.931443 418.194286,243.04 C416.392372,240.148557 415.40762,236.523831 415.24,232.165714 L432.211429,232.165714 Z M504.245714,178.234286 L486.394286,178.234286 L486.394286,163.525714 L504.245714,163.525714 L504.245714,178.234286 Z M486.394286,188.291429 L504.245714,188.291429 L504.245714,253.285714 L486.394286,253.285714 L486.394286,188.291429 Z M548.622857,237.948571 C551.137155,237.948571 553.358086,237.445719 555.285714,236.44 C557.213343,235.434281 558.805708,234.093342 560.062857,232.417143 C561.320006,230.740944 562.262854,228.834296 562.891429,226.697143 C563.520003,224.559989 563.834286,222.318107 563.834286,219.971429 C563.834286,217.28951 563.58286,214.754298 563.08,212.365714 C562.57714,209.977131 561.739053,207.860962 560.565714,206.017143 C559.392375,204.173324 557.841914,202.706672 555.914286,201.617143 C553.986657,200.527614 551.556205,199.982857 548.622857,199.982857 C546.108559,199.982857 543.950485,200.485709 542.148571,201.491429 C540.346658,202.497148 538.838101,203.859039 537.622857,205.577143 C536.407613,207.295247 535.527622,209.264751 534.982857,211.485714 C534.438093,213.706678 534.165714,216.032369 534.165714,218.462857 C534.165714,220.809536 534.396188,223.135227 534.857143,225.44 C535.318098,227.744773 536.11428,229.819038 537.245714,231.662857 C538.377149,233.506676 539.864753,235.015232 541.708571,236.188571 C543.55239,237.361911 545.857129,237.948571 548.622857,237.948571 Z M580.805714,249.137143 C580.805714,251.735251 580.449527,254.710459 579.737143,258.062857 C579.024758,261.415255 577.49525,264.537128 575.148571,267.428571 C572.801893,270.320014 569.407641,272.771419 564.965714,274.782857 C560.523787,276.794296 554.573371,277.8 547.114286,277.8 C543.929508,277.8 540.681921,277.401909 537.371429,276.605714 C534.060936,275.80952 531.043823,274.573342 528.32,272.897143 C525.596177,271.220944 523.333342,269.06287 521.531429,266.422857 C519.729515,263.782844 518.702858,260.619066 518.451429,256.931429 L536.177143,256.931429 C537.015242,260.283826 538.649512,262.609517 541.08,263.908571 C543.510488,265.207626 546.318079,265.857143 549.502857,265.857143 C554.531454,265.857143 558.198084,264.348587 560.502857,261.331429 C562.807631,258.314271 563.918096,254.500975 563.834286,249.891429 L563.834286,241.342857 L563.582857,241.342857 C561.655228,244.779065 558.910494,247.314278 555.348571,248.948571 C551.786649,250.582865 548.03621,251.4 544.097143,251.4 C539.236166,251.4 535.045732,250.540961 531.525714,248.822857 C528.005697,247.104753 525.114297,244.75811 522.851429,241.782857 C520.58856,238.807604 518.933339,235.329544 517.885714,231.348571 C516.83809,227.367599 516.314286,223.156213 516.314286,218.714286 C516.314286,214.523789 516.921899,210.480019 518.137143,206.582857 C519.352387,202.685695 521.133322,199.249539 523.48,196.274286 C525.826678,193.299033 528.73903,190.931437 532.217143,189.171429 C535.695255,187.41142 539.69712,186.531429 544.222857,186.531429 C548.497164,186.531429 552.247603,187.327611 555.474286,188.92 C558.700969,190.512389 561.403799,193.194267 563.582857,196.965714 L563.834286,196.965714 L563.834286,188.291429 L580.805714,188.291429 L580.805714,249.137143 Z M595.137143,188.291429 L612.108571,188.291429 L612.108571,197.342857 L612.485714,197.342857 C614.748583,193.57141 617.681887,190.826675 621.285714,189.108571 C624.889542,187.390468 628.577124,186.531429 632.348571,186.531429 C637.125738,186.531429 641.043794,187.180946 644.102857,188.48 C647.16192,189.779054 649.57142,191.580941 651.331429,193.885714 C653.091437,196.190488 654.327615,198.998079 655.04,202.308571 C655.752385,205.619064 656.108571,209.285694 656.108571,213.308571 L656.108571,253.285714 L638.257143,253.285714 L638.257143,216.577143 C638.257143,211.213307 637.419056,207.211442 635.742857,204.571429 C634.066658,201.931415 631.09145,200.611429 626.817143,200.611429 C621.956166,200.611429 618.436201,202.057128 616.257143,204.948571 C614.078084,207.840014 612.988571,212.596157 612.988571,219.217143 L612.988571,253.285714 L595.137143,253.285714 L595.137143,188.291429 Z M713.434286,213.811429 C712.596186,209.285692 711.108582,205.849536 708.971429,203.502857 C706.834275,201.156179 703.586688,199.982857 699.228571,199.982857 C696.379033,199.982857 694.011438,200.464757 692.125714,201.428571 C690.239991,202.392386 688.731434,203.58666 687.6,205.011429 C686.468566,206.436198 685.672383,207.944754 685.211429,209.537143 C684.750474,211.129532 684.478096,212.554279 684.394286,213.811429 L713.434286,213.811429 Z M684.394286,225.125714 C684.645716,230.9086 686.112368,235.099035 688.794286,237.697143 C691.476204,240.295251 695.331403,241.594286 700.36,241.594286 C703.963828,241.594286 707.064749,240.693342 709.662857,238.891429 C712.260965,237.089515 713.85333,235.182867 714.44,233.171429 L730.154286,233.171429 C727.639987,240.965753 723.784788,246.539031 718.588571,249.891429 C713.392355,253.243826 707.106704,254.92 699.731429,254.92 C694.619022,254.92 690.009544,254.102865 685.902857,252.468571 C681.79617,250.834278 678.318109,248.508587 675.468571,245.491429 C672.619033,242.474271 670.419055,238.870497 668.868571,234.68 C667.318087,230.489503 666.542857,225.880025 666.542857,220.851429 C666.542857,215.990452 667.33904,211.464783 668.931429,207.274286 C670.523817,203.083789 672.786652,199.459063 675.72,196.4 C678.653348,193.340937 682.152361,190.931437 686.217143,189.171429 C690.281925,187.41142 694.786642,186.531429 699.731429,186.531429 C705.262885,186.531429 710.081884,187.599989 714.188571,189.737143 C718.295259,191.874296 721.668558,194.744744 724.308571,198.348571 C726.948585,201.952399 728.855232,206.059025 730.028571,210.668571 C731.201911,215.278118 731.620954,220.097118 731.285714,225.125714 L684.394286,225.125714 Z M741.845714,188.291429 L758.817143,188.291429 L758.817143,200.36 L759.068571,200.36 C759.906671,198.348561 761.038088,196.483818 762.462857,194.765714 C763.887626,193.04761 765.521896,191.580958 767.365714,190.365714 C769.209533,189.15047 771.179037,188.207622 773.274286,187.537143 C775.369534,186.866663 777.54856,186.531429 779.811429,186.531429 C780.984768,186.531429 782.283802,186.74095 783.708571,187.16 L783.708571,203.754286 C782.870472,203.586666 781.864768,203.440001 780.691429,203.314286 C779.518089,203.188571 778.386672,203.125714 777.297143,203.125714 C774.028555,203.125714 771.262868,203.670471 769,204.76 C766.737132,205.849529 764.914293,207.337133 763.531429,209.222857 C762.148565,211.108581 761.163812,213.308559 760.577143,215.822857 C759.990473,218.337155 759.697143,221.060938 759.697143,223.994286 L759.697143,253.285714 L741.845714,253.285714 L741.845714,188.291429 Z" id="UX-Designer" fill="#D8267D"></path>
    </g>
</svg>